<?xml version="1.0" encoding="UTF-8"?> <svg xmlns="http://www.w3.org/2000/svg" width="52" height="46" viewBox="0 0 52 46" fill="none"><path fill-rule="evenodd" clip-rule="evenodd" d="M0 14.335C0 6.418 6.418 0 14.335 0C18.1368 0 21.783 1.51034 24.4716 4.19868L25.5598 5.28715L26.6485 4.19847C29.3369 1.51033 32.9831 0 36.7849 0C44.7019 0 51.1199 6.41822 51.1197 14.3352V14.6532C51.1195 18.5991 49.5281 22.3781 46.7052 25.1352L43.6617 28.1082C43.6143 25.9791 43.031 23.9823 42.0412 22.2471L42.9847 21.326C44.7815 19.5709 45.7947 17.1651 45.7947 14.6532V14.335C45.7947 9.3589 41.7608 5.32497 36.7849 5.32497C34.3952 5.32497 32.1035 6.27433 30.4138 7.96398L27.4425 10.9353L25.5596 12.818L23.677 10.9351L20.7061 7.96398C19.0164 6.27433 16.7245 5.32497 14.335 5.32497C9.3589 5.32497 5.32497 9.3589 5.32497 14.335V14.653C5.32497 17.1651 6.33823 19.5709 8.13525 21.326L9.07831 22.2473C8.08874 23.9826 7.50538 25.9793 7.458 28.1084L4.41429 25.1354C1.5914 22.3781 0 18.5989 0 14.653V14.335ZM11.7149 28.3895C11.7149 23.8861 15.3659 20.2349 19.8695 20.2349C21.9967 20.2349 24.0382 21.066 25.5601 22.5485C27.0817 21.066 29.123 20.2349 31.2502 20.2349C35.754 20.2349 39.405 23.8861 39.4048 28.3897C39.4048 30.5523 38.5456 32.6264 37.0164 34.1556L27.0661 44.1062L25.5601 45.6122L24.0536 44.1062L14.1033 34.1556C12.5741 32.6264 11.7149 30.5523 11.7149 28.3895Z" fill="#DBFC54"></path></svg> 