<svg width="54" height="52" viewBox="0 0 54 52" fill="none" xmlns="http://www.w3.org/2000/svg">
<path d="M28.0782 13.0004V24.7735L37.8313 30.6425C38.3225 30.9384 38.6765 31.418 38.8152 31.9757C38.954 32.5333 38.8662 33.1235 38.5711 33.6162C38.2761 34.109 37.798 34.464 37.2419 34.6032C36.6859 34.7423 36.0976 34.6542 35.6063 34.3583L24.8056 27.8583C24.4859 27.6657 24.2214 27.3933 24.0378 27.0677C23.8542 26.7422 23.7578 26.3744 23.7579 26.0004V13.0004C23.7579 12.4258 23.9855 11.8747 24.3906 11.4683C24.7957 11.062 25.3451 10.8337 25.918 10.8337C26.4909 10.8337 27.0404 11.062 27.4455 11.4683C27.8506 11.8747 28.0782 12.4258 28.0782 13.0004ZM52.6661 6.66561C52.2714 6.50139 51.8371 6.45824 51.418 6.54164C50.9989 6.62504 50.6138 6.83124 50.3115 7.13416L46.9795 10.4844C46.1073 9.53374 45.2082 8.58853 44.2523 7.61624C40.6499 4.00253 36.0656 1.53375 31.0722 0.51839C26.0789 -0.496973 20.898 -0.0138976 16.1768 1.90726C11.4556 3.82841 7.40357 7.10244 4.52696 11.3203C1.65034 15.5381 0.0767272 20.5127 0.00273481 25.6224C-0.0712576 30.7321 1.35766 35.7505 4.11093 40.0503C6.8642 44.3501 10.8197 47.7408 15.4833 49.7987C20.1469 51.8566 25.3116 52.4904 30.3322 51.6209C35.3529 50.7514 40.0067 48.4172 43.7123 44.91C43.9187 44.7144 44.0846 44.4799 44.2006 44.2199C44.3167 43.96 44.3805 43.6797 44.3885 43.395C44.3966 43.1103 44.3486 42.8268 44.2474 42.5607C44.1462 42.2946 43.9937 42.0511 43.7987 41.8441C43.6037 41.6371 43.3699 41.4707 43.1107 41.3543C42.8516 41.2379 42.5721 41.1739 42.2883 41.1658C42.0044 41.1578 41.7218 41.2059 41.4565 41.3074C41.1912 41.4089 40.9484 41.5619 40.7421 41.7575C37.6544 44.6797 33.7766 46.6247 29.5933 47.3493C25.4099 48.074 21.1064 47.5462 17.2204 45.8319C13.3344 44.1176 10.0381 41.2928 7.74339 37.7104C5.44866 34.128 4.25719 29.9468 4.31784 25.6892C4.37849 21.4315 5.68857 17.2862 8.08441 13.771C10.4803 10.2558 13.8556 7.52667 17.7889 5.92444C21.7222 4.32221 26.039 3.91795 30.2 4.76218C34.361 5.6064 38.1817 7.66167 41.1849 10.6712C42.1408 11.6408 43.0399 12.5942 43.9148 13.5502L39.5108 17.9675C39.2083 18.2705 39.0023 18.6567 38.9188 19.0772C38.8354 19.4978 38.8781 19.9337 39.0418 20.3298C39.2054 20.7259 39.4825 21.0644 39.8381 21.3025C40.1936 21.5405 40.6116 21.6674 41.0391 21.6671H51.8398C52.4128 21.6671 52.9622 21.4388 53.3673 21.0325C53.7724 20.6261 54 20.075 54 19.5004V8.66707C53.9999 8.23855 53.8731 7.81967 53.6357 7.46342C53.3983 7.10716 53.0609 6.82952 52.6661 6.66561Z" fill="#69A297"/>
</svg>
