<svg width="58" height="55" viewBox="0 0 58 55" fill="none" xmlns="http://www.w3.org/2000/svg">
<path d="M28.7155 5.82631C28.7156 7.18668 28.7388 8.54705 28.7062 9.90742C28.6441 12.3141 34.4075 12.9724 36.0826 12.9094C37.7458 12.8491 38.4982 14.6271 40.2638 14.5642C42.222 14.4963 54.5281 13.1644 54.5281 16.4288C54.5126 18.2419 53.467 23.192 55.1421 24.4978C56.0443 25.2063 56.3606 26.0966 56.2304 27.234C56.0877 28.5064 57.3612 27.6558 57.4536 28.721C57.6024 30.6136 57.1978 32.4036 56.649 34.2076C55.1169 39.2725 46.7795 39.7879 43.2962 43.3533C40.8388 45.8376 40.2155 48.8564 40.8405 52.3592C40.9754 53.1097 41.3707 53.7484 41.6777 54.4243C42.2344 55.6307 34.045 52.9891 33.2176 52.541C32.2808 52.0381 31.9088 50.0068 31.5898 49.1009C30.7437 46.6825 28.5346 44.986 27.3296 42.6774C25.9512 40.0502 24.9066 37.6874 22.7391 35.6293C22.0637 34.9765 17.241 34.7924 16.8092 35.9742C16.4046 37.1163 15.9999 38.249 15.1256 39.1534C14.2916 40.0162 10.2404 36.402 9.22355 35.853C7.37991 34.8615 8.39984 33.5913 7.87943 32.2964C7.13808 30.4034 5.67769 28.3979 3.70291 27.7794C2.43186 27.38 2.87516 25.7984 1.6658 25.1923C-4.42408 22.1764 8.03394 22.8489 9.49795 22.9082C11.242 22.9781 12.9908 23.0201 14.7395 23.076C18.2958 23.1894 14.5751 -0.238576 17.4836 0.00183775C18.9998 0.132358 20.5206 0.248895 22.0415 0.370092C23.8367 0.514597 25.632 0.673087 27.4319 0.789623C28.7062 0.873529 28.7109 0.850222 28.7109 2.13212C28.7109 3.36197 28.7109 4.59182 28.7109 5.82166L28.7155 5.82631Z" fill="#69A297"/>
</svg>
