<svg width="54" height="50" viewBox="0 0 54 50" fill="none" xmlns="http://www.w3.org/2000/svg">
<path d="M52.9114 22.2213L37.2112 6.4996C33.0181 2.33753 27.3361 0 21.4121 0C15.4881 0 9.80605 2.33753 5.61297 6.4996L5.59202 6.52043L2.38728 9.81431C2.0553 10.1691 1.87644 10.6393 1.88908 11.1238C1.90172 11.6084 2.10486 12.0686 2.4549 12.4059C2.80493 12.7431 3.27395 12.9304 3.76127 12.9275C4.2486 12.9247 4.71537 12.7319 5.06139 12.3906L8.25682 9.10831C9.54241 7.82994 11.0095 6.74591 12.6113 5.89082L23.4334 16.6659L1.09096 38.8875C0.745086 39.2314 0.470722 39.6397 0.283534 40.0891C0.0963454 40.5385 0 41.0202 0 41.5066C0 41.993 0.0963454 42.4747 0.283534 42.9241C0.470722 43.3735 0.745086 43.7818 1.09096 44.1257L5.90621 48.9149C6.252 49.2589 6.66254 49.5318 7.11438 49.718C7.56622 49.9042 8.05051 50 8.53959 50C9.02867 50 9.51296 49.9042 9.9648 49.718C10.4166 49.5318 10.8272 49.2589 11.173 48.9149L33.5154 26.6934L40.9628 34.1006C41.3086 34.4446 41.7192 34.7175 42.171 34.9036C42.6229 35.0898 43.1071 35.1856 43.5962 35.1856C44.0853 35.1856 44.5696 35.0898 45.0214 34.9036C45.4733 34.7175 45.8838 34.4446 46.2296 34.1006L52.9067 27.4596C53.2529 27.116 53.5276 26.7079 53.7152 26.2587C53.9028 25.8094 53.9996 25.3279 54 24.8414C54.0004 24.355 53.9045 23.8732 53.7177 23.4237C53.5309 22.9741 53.2569 22.5656 52.9114 22.2213ZM32.1981 22.7607L26.9988 27.9318L22.1836 23.1472L27.3852 17.9738C27.5583 17.8018 27.6956 17.5976 27.7893 17.3728C27.883 17.148 27.9312 16.907 27.9312 16.6636C27.9312 16.4203 27.883 16.1793 27.7893 15.9545C27.6956 15.7297 27.5583 15.5255 27.3852 15.3535L16.3676 4.39781C19.5507 3.50617 22.9153 3.47384 26.1152 4.30417C29.315 5.1345 32.2348 6.79751 34.5743 9.1222L44.8658 19.4251L38.17 26.0777L34.8326 22.7584C34.6597 22.5862 34.4544 22.4496 34.2284 22.3564C34.0023 22.2632 33.7601 22.2152 33.5154 22.2152C33.2707 22.2152 33.0284 22.2632 32.8024 22.3564C32.5764 22.4496 32.371 22.5862 32.1981 22.7584V22.7607ZM43.602 31.478L40.8092 28.7003L47.4794 22.0477L50.2722 24.8254L43.602 31.478Z" fill="#69A297"/>
</svg>
