<svg width="38" height="50" viewBox="0 0 38 50" fill="none" xmlns="http://www.w3.org/2000/svg">
<path d="M19 0C13.9626 0.00590794 9.13323 2.07734 5.57128 5.75984C2.00933 9.44235 0.00571454 14.4352 0 19.6431C0 36.4513 17.2727 49.1456 18.009 49.6768C18.2994 49.8872 18.6454 50 19 50C19.3546 50 19.7006 49.8872 19.991 49.6768C20.7273 49.1456 38 36.4513 38 19.6431C37.9943 14.4352 35.9907 9.44235 32.4287 5.75984C28.8668 2.07734 24.0374 0.00590794 19 0ZM19 12.5001C20.3665 12.5001 21.7023 12.9191 22.8385 13.7039C23.9747 14.4888 24.8602 15.6044 25.3832 16.9096C25.9061 18.2148 26.0429 19.651 25.7763 21.0366C25.5097 22.4222 24.8517 23.6949 23.8855 24.6939C22.9192 25.6928 21.6881 26.3731 20.3479 26.6487C19.0077 26.9243 17.6185 26.7829 16.356 26.2423C15.0935 25.7016 14.0145 24.7861 13.2553 23.6115C12.4961 22.4368 12.0909 21.0558 12.0909 19.6431C12.0909 17.7486 12.8188 15.9318 14.1145 14.5922C15.4102 13.2527 17.1676 12.5001 19 12.5001Z" fill="#69A297"/>
</svg>
