<svg width="173" height="28" viewBox="0 0 173 28" fill="none" xmlns="http://www.w3.org/2000/svg">
<path fill-rule="evenodd" clip-rule="evenodd" d="M87.6607 1.09173C87.5611 0.875785 87.4017 0.692902 87.2014 0.564716C87.001 0.436531 86.7682 0.368408 86.5304 0.368408C86.2926 0.368408 86.0597 0.436531 85.8594 0.564716C85.6591 0.692902 85.4997 0.875785 85.4 1.09173L81.8272 8.83497L73.3606 9.8396C73.1244 9.86749 72.9011 9.96247 72.7172 10.1133C72.5333 10.2641 72.3964 10.4645 72.3228 10.6907C72.2492 10.9169 72.242 11.1594 72.3019 11.3896C72.3618 11.6198 72.4864 11.828 72.661 11.9895L78.9228 17.7783L77.2609 26.144C77.2147 26.3772 77.2363 26.6187 77.3231 26.8401C77.4098 27.0614 77.5582 27.2532 77.7505 27.3929C77.9428 27.5327 78.1712 27.6144 78.4085 27.6284C78.6458 27.6425 78.8821 27.5883 79.0896 27.4723L86.5304 23.3069L93.9711 27.4723C94.1787 27.5888 94.4154 27.6433 94.6531 27.6294C94.8908 27.6155 95.1194 27.5337 95.3121 27.3938C95.5047 27.2539 95.6531 27.0616 95.7398 26.8399C95.8265 26.6181 95.8478 26.3762 95.8011 26.1427L94.1392 17.7795L100.4 11.9895C100.574 11.828 100.699 11.6198 100.759 11.3896C100.819 11.1594 100.812 10.9169 100.738 10.6907C100.664 10.4645 100.527 10.2641 100.344 10.1133C100.16 9.96247 99.9363 9.86749 99.7001 9.8396L91.2323 8.83373L87.6607 1.09173Z" fill="#69A297"/>
<path fill-rule="evenodd" clip-rule="evenodd" d="M123.762 1.09173C123.663 0.875785 123.503 0.692902 123.303 0.564716C123.103 0.436531 122.87 0.368408 122.632 0.368408C122.394 0.368408 122.161 0.436531 121.961 0.564716C121.761 0.692902 121.601 0.875785 121.502 1.09173L117.929 8.83497L109.462 9.8396C109.226 9.86749 109.003 9.96247 108.819 10.1133C108.635 10.2641 108.498 10.4645 108.424 10.6907C108.351 10.9169 108.344 11.1594 108.403 11.3896C108.463 11.6198 108.588 11.828 108.763 11.9895L115.024 17.7783L113.362 26.144C113.316 26.3772 113.338 26.6187 113.425 26.8401C113.511 27.0614 113.66 27.2532 113.852 27.3929C114.044 27.5327 114.273 27.6144 114.51 27.6284C114.747 27.6425 114.984 27.5883 115.191 27.4723L122.632 23.3069L130.073 27.4723C130.28 27.5888 130.517 27.6433 130.755 27.6294C130.992 27.6155 131.221 27.5337 131.414 27.3938C131.606 27.2539 131.755 27.0616 131.841 26.8399C131.928 26.6181 131.949 26.3762 131.903 26.1427L130.241 17.7795L136.501 11.9895C136.676 11.828 136.8 11.6198 136.86 11.3896C136.92 11.1594 136.913 10.9169 136.839 10.6907C136.766 10.4645 136.629 10.2641 136.445 10.1133C136.261 9.96247 136.038 9.86749 135.802 9.8396L127.334 8.83373L123.762 1.09173Z" fill="#69A297"/>
<path fill-rule="evenodd" clip-rule="evenodd" d="M159.86 1.09173C159.76 0.875785 159.601 0.692902 159.401 0.564716C159.2 0.436531 158.967 0.368408 158.73 0.368408C158.492 0.368408 158.259 0.436531 158.059 0.564716C157.858 0.692902 157.699 0.875785 157.599 1.09173L154.026 8.83497L145.56 9.8396C145.324 9.86749 145.1 9.96247 144.916 10.1133C144.733 10.2641 144.596 10.4645 144.522 10.6907C144.448 10.9169 144.441 11.1594 144.501 11.3896C144.561 11.6198 144.686 11.828 144.86 11.9895L151.122 17.7783L149.46 26.144C149.414 26.3772 149.436 26.6187 149.522 26.8401C149.609 27.0614 149.757 27.2532 149.95 27.3929C150.142 27.5327 150.37 27.6144 150.608 27.6284C150.845 27.6425 151.081 27.5883 151.289 27.4723L158.73 23.3069L166.17 27.4723C166.378 27.5888 166.615 27.6433 166.852 27.6294C167.09 27.6155 167.319 27.5337 167.511 27.3938C167.704 27.2539 167.852 27.0616 167.939 26.8399C168.026 26.6181 168.047 26.3762 168 26.1427L166.338 17.7795L172.599 11.9895C172.774 11.828 172.898 11.6198 172.958 11.3896C173.018 11.1594 173.011 10.9169 172.937 10.6907C172.864 10.4645 172.727 10.2641 172.543 10.1133C172.359 9.96247 172.136 9.86749 171.899 9.8396L163.432 8.83373L159.86 1.09173Z" fill="#69A297"/>
<path fill-rule="evenodd" clip-rule="evenodd" d="M51.5553 1.09173C51.4556 0.875785 51.2962 0.692902 51.0959 0.564716C50.8956 0.436531 50.6627 0.368408 50.4249 0.368408C50.1871 0.368408 49.9542 0.436531 49.7539 0.564716C49.5536 0.692902 49.3942 0.875785 49.2945 1.09173L45.7217 8.83497L37.2552 9.8396C37.019 9.86749 36.7957 9.96247 36.6117 10.1133C36.4278 10.2641 36.291 10.4645 36.2174 10.6907C36.1437 10.9169 36.1365 11.1594 36.1964 11.3896C36.2564 11.6198 36.381 11.828 36.5555 11.9895L42.8174 17.7783L41.1554 26.144C41.1093 26.3772 41.1308 26.6187 41.2176 26.8401C41.3044 27.0614 41.4527 27.2532 41.645 27.3929C41.8374 27.5327 42.0657 27.6144 42.303 27.6284C42.5403 27.6425 42.7767 27.5883 42.9842 27.4723L50.4249 23.3069L57.8656 27.4723C58.0733 27.5888 58.3099 27.6433 58.5476 27.6294C58.7853 27.6155 59.014 27.5337 59.2066 27.3938C59.3992 27.2539 59.5476 27.0616 59.6343 26.8399C59.721 26.6181 59.7423 26.3762 59.6956 26.1427L58.0337 17.7795L64.2943 11.9895C64.4688 11.828 64.5935 11.6198 64.6534 11.3896C64.7133 11.1594 64.7061 10.9169 64.6325 10.6907C64.5589 10.4645 64.422 10.2641 64.2381 10.1133C64.0541 9.96247 63.8309 9.86749 63.5946 9.8396L55.1269 8.83373L51.5553 1.09173Z" fill="#69A297"/>
<path fill-rule="evenodd" clip-rule="evenodd" d="M15.4537 1.09173C15.3541 0.875785 15.1947 0.692902 14.9943 0.564716C14.794 0.436531 14.5612 0.368408 14.3233 0.368408C14.0855 0.368408 13.8527 0.436531 13.6524 0.564716C13.452 0.692902 13.2926 0.875785 13.193 1.09173L9.62013 8.83497L1.15361 9.8396C0.917388 9.86749 0.694105 9.96247 0.510182 10.1133C0.326259 10.2641 0.189396 10.4645 0.115791 10.6907C0.0421862 10.9169 0.0349207 11.1594 0.0948543 11.3896C0.154788 11.6198 0.279412 11.828 0.453976 11.9895L6.7158 17.7783L5.05386 26.144C5.0077 26.3772 5.02928 26.6187 5.11604 26.8401C5.2028 27.0614 5.35112 27.2532 5.54346 27.3929C5.7358 27.5327 5.96413 27.6144 6.20144 27.6284C6.43874 27.6425 6.67512 27.5883 6.88261 27.4723L14.3233 23.3069L21.7641 27.4723C21.9717 27.5888 22.2084 27.6433 22.446 27.6294C22.6837 27.6155 22.9124 27.5337 23.105 27.3938C23.2976 27.2539 23.4461 27.0616 23.5328 26.8399C23.6194 26.6181 23.6407 26.3762 23.5941 26.1427L21.9321 17.7795L28.1927 11.9895C28.3673 11.828 28.4919 11.6198 28.5518 11.3896C28.6118 11.1594 28.6045 10.9169 28.5309 10.6907C28.4573 10.4645 28.3204 10.2641 28.1365 10.1133C27.9526 9.96247 27.7293 9.86749 27.4931 9.8396L19.0253 8.83373L15.4537 1.09173Z" fill="#69A297"/>
</svg>
