<svg width="117" height="53" viewBox="0 0 117 53" fill="none" xmlns="../../../../../www.w3.org/2000/svg">
<path fill-rule="evenodd" clip-rule="evenodd" d="M58.5095 0L24.0763 21.164V34.8482H36.5977V28.8586L58.5095 15.3893C65.8141 19.8784 73.1187 24.3675 80.4214 28.8586V34.8482H92.9427V21.1661L58.5095 0Z" fill="#00494B"/>
<path d="M13.3393 46.8707C13.3393 50.6835 10.5911 53 6.9734 53C2.91377 53 0 50.1145 0 46.5335C0 42.9525 2.97015 40.0301 6.77151 40.0301C9.2433 40.0301 11.3295 41.2068 12.4172 42.8805L9.90718 44.2697C9.37244 43.4495 8.21021 42.8085 6.7515 42.8085C4.57436 42.8085 2.95014 44.3593 2.95014 46.5493C2.95014 48.7393 4.49979 50.2199 7.00978 50.2199C8.72494 50.2199 9.85079 49.4893 10.3128 48.295H6.86245V45.8012H13.3393V46.8707Z" fill="#00494B"/>
<path d="M24.1341 50.7906H19.336L18.6903 52.7506H15.4619L19.8525 40.2795H23.6157L28.0064 52.7506H24.7779L24.1323 50.7906H24.1341ZM23.2483 48.1176L21.735 43.5391L20.2218 48.1176H23.2483Z" fill="#00494B"/>
<path d="M35.5 48.6515H34.0976V52.7489H31.1457V40.2795H36.3112C38.7648 40.2795 40.74 42.1851 40.74 44.556C40.74 46.0874 39.7815 47.4784 38.3592 48.1721L41.1074 52.7506H37.9336L35.4981 48.6533L35.5 48.6515ZM34.0976 46.1577H36.3112C37.1224 46.1577 37.788 45.4622 37.788 44.5542C37.788 43.6462 37.1242 42.9508 36.3112 42.9508H34.0976V46.1577Z" fill="#00494B"/>
<path d="M52.0877 50.7906H47.2914L46.6458 52.7506H43.4173L47.808 40.2795H51.5712L55.9618 52.7506H52.7334L52.0877 50.7906ZM51.2019 48.1176L49.6887 43.5391L48.1754 48.1176H51.2019Z" fill="#00494B"/>
<path d="M71.4255 46.8707C71.4255 50.6835 68.6755 53 65.0596 53C61 53 58.0862 50.1145 58.0862 46.5335C58.0862 42.9525 61.0564 40.0301 64.8577 40.0301C67.3295 40.0301 69.4157 41.2068 70.5034 42.8805L67.9934 44.2697C67.4587 43.4495 66.2964 42.8085 64.8377 42.8085C62.6606 42.8085 61.0364 44.3593 61.0364 46.5493C61.0364 48.7393 62.586 50.2199 65.096 50.2199C66.8111 50.2199 67.937 49.4893 68.399 48.295H64.9487V45.8012H71.4255V46.8707Z" fill="#00494B"/>
<path d="M83.2334 50.0056V52.7489H75.1159V40.2795H83.1424V43.0228H78.0679V45.0899H82.6805V47.798H78.0679V50.0074H83.2334V50.0056Z" fill="#00494B"/>
<path d="M93.4752 48.7235V40.2795H96.4272V48.4742C96.4272 49.419 96.8892 50.2199 98.457 50.2199C100.025 50.2199 100.487 49.4173 100.487 48.4742V40.2795H103.439V48.7235C103.439 51.3966 101.298 53 98.457 53C95.616 53 93.4752 51.3966 93.4752 48.7235Z" fill="#00494B"/>
<path d="M117 44.5542C117 46.9234 115.027 48.8307 112.48 48.8307H110.543V52.7506H107.591V40.2795H112.48C115.027 40.2795 117 42.1851 117 44.556V44.5542ZM114.048 44.5542C114.048 43.6462 113.384 42.9508 112.48 42.9508H110.543V46.1577H112.48C113.384 46.1577 114.048 45.4622 114.048 44.5542Z" fill="#00494B"/>
</svg>
