<?xml version="1.0" encoding="UTF-8"?> <svg xmlns="http://www.w3.org/2000/svg" width="72" height="68" viewBox="0 0 72 68" fill="none"><path d="M35.9041 7.71445C35.9041 9.38317 35.9326 11.0519 35.8927 12.7206C35.8165 15.6728 42.8862 16.4803 44.941 16.403C46.9811 16.3291 47.9042 18.5101 50.0699 18.4329C52.4721 18.3497 67.5675 16.7158 67.5675 20.7202C67.5484 22.9442 66.2659 29.0164 68.3206 30.6181C69.4274 31.4872 69.8154 32.5794 69.6556 33.9746C69.4806 35.5353 71.0427 34.492 71.1561 35.7986C71.3386 38.1202 70.8423 40.3159 70.1691 42.5288C68.2898 48.7418 58.0625 49.374 53.7897 53.7476C50.7753 56.795 50.0106 60.498 50.7774 64.7948C50.9428 65.7155 51.4277 66.4988 51.8043 67.3279C52.4872 68.8078 42.4415 65.5675 41.4267 65.0178C40.2775 64.4008 39.8212 61.9092 39.4299 60.7979C38.392 57.8313 35.6821 55.7504 34.204 52.9185C32.5132 49.6957 31.2318 46.7974 28.573 44.2728C27.7445 43.472 21.8286 43.2462 21.299 44.6959C20.8026 46.0968 20.3063 47.4863 19.2337 48.5956C18.2107 49.654 13.2412 45.2207 11.9939 44.5472C9.73238 43.331 10.9835 41.7729 10.3451 40.1844C9.43573 37.8623 7.64432 35.4023 5.22192 34.6436C3.66277 34.1536 4.20655 32.2135 2.72307 31.4701C-4.74718 27.7705 10.5346 28.5955 12.3305 28.6682C14.4699 28.754 16.6151 28.8055 18.7602 28.8741C23.1226 29.0132 18.5585 0.274852 22.1262 0.569759C23.9861 0.729864 25.8517 0.872816 27.7172 1.02148C29.9194 1.19874 32.1216 1.39316 34.3295 1.53611C35.8927 1.63903 35.8984 1.61044 35.8984 3.18291C35.8984 4.69152 35.8984 6.20013 35.8984 7.70875L35.9041 7.71445Z" fill="#69A297"></path></svg> 