<?xml version="1.0" encoding="UTF-8"?> <svg xmlns="http://www.w3.org/2000/svg" width="67" height="62" viewBox="0 0 67 62" fill="none"><path d="M65.5843 27.8257L46.3254 8.54035C41.1819 3.43487 34.2119 0.567505 26.9452 0.567505C19.6784 0.567505 12.7084 3.43487 7.56493 8.54035L7.53923 8.5659L3.60809 12.6064C3.20086 13.0417 2.98145 13.6184 2.99696 14.2127C3.01247 14.8071 3.26165 15.3717 3.69103 15.7854C4.1204 16.199 4.69574 16.4288 5.29352 16.4253C5.8913 16.4218 6.46387 16.1853 6.88832 15.7667L10.8081 11.7404C12.385 10.1722 14.1847 8.84249 16.1495 7.79358L29.4246 21.0111L2.01793 48.2695C1.59366 48.6914 1.25711 49.1922 1.02749 49.7435C0.797871 50.2947 0.679688 50.8856 0.679688 51.4823C0.679688 52.079 0.797871 52.6698 1.02749 53.2211C1.25711 53.7723 1.59366 54.2732 2.01793 54.6951L7.92464 60.5698C8.34881 60.9918 8.85241 61.3265 9.40666 61.5549C9.96092 61.7833 10.555 61.9008 11.1549 61.9008C11.7549 61.9008 12.3489 61.7833 12.9032 61.5549C13.4574 61.3265 13.961 60.9918 14.3852 60.5698L41.7919 33.3114L50.9274 42.3976C51.3516 42.8195 51.8552 43.1543 52.4095 43.3826C52.9637 43.611 53.5578 43.7286 54.1577 43.7286C54.7577 43.7286 55.3517 43.611 55.906 43.3826C56.4602 43.1543 56.9638 42.8195 57.388 42.3976L65.5786 34.2513C66.0032 33.8298 66.3402 33.3292 66.5703 32.7781C66.8005 32.2271 66.9192 31.6363 66.9197 31.0396C66.9202 30.443 66.8026 29.852 66.5734 29.3005C66.3443 28.7491 66.0082 28.2479 65.5843 27.8257ZM40.176 28.4873L33.7983 34.8305L27.8916 28.9614L34.2722 22.6153C34.4845 22.4044 34.653 22.1539 34.7679 21.8781C34.8828 21.6023 34.942 21.3067 34.942 21.0082C34.942 20.7097 34.8828 20.4141 34.7679 20.1384C34.653 19.8626 34.4845 19.6121 34.2722 19.4011L20.7572 5.96216C24.6619 4.8684 28.7891 4.82875 32.7143 5.84729C36.6395 6.86582 40.2211 8.90578 43.0908 11.7574L55.715 24.3957L47.5016 32.5561L43.4077 28.4844C43.1956 28.2732 42.9437 28.1057 42.6665 27.9914C42.3892 27.877 42.092 27.8182 41.7919 27.8182C41.4917 27.8182 41.1945 27.877 40.9173 27.9914C40.64 28.1057 40.3881 28.2732 40.176 28.4844V28.4873ZM54.1649 39.1805L50.739 35.7732L58.9211 27.6127L62.3469 31.02L54.1649 39.1805Z" fill="#69A297"></path></svg> 