<?xml version="1.0" encoding="UTF-8"?> <svg xmlns="http://www.w3.org/2000/svg" width="213" height="35" viewBox="0 0 213 35" fill="none"><path fill-rule="evenodd" clip-rule="evenodd" d="M107.651 1.85261C107.529 1.58771 107.333 1.36338 107.088 1.20614C106.842 1.0489 106.556 0.965332 106.265 0.965332C105.973 0.965332 105.687 1.0489 105.442 1.20614C105.196 1.36338 105 1.58771 104.878 1.85261L100.495 11.351L90.1097 12.5833C89.82 12.6175 89.5461 12.7341 89.3205 12.9191C89.0948 13.1041 88.927 13.3499 88.8367 13.6273C88.7464 13.9048 88.7375 14.2023 88.811 14.4846C88.8845 14.767 89.0374 15.0224 89.2515 15.2206L96.9327 22.3215L94.894 32.5834C94.8374 32.8694 94.8639 33.1657 94.9703 33.4372C95.0767 33.7087 95.2587 33.9441 95.4946 34.1154C95.7306 34.2868 96.0106 34.387 96.3017 34.4043C96.5928 34.4215 96.8828 34.3551 97.1373 34.2128L106.265 29.1032L115.392 34.2128C115.647 34.3557 115.937 34.4226 116.228 34.4055C116.52 34.3884 116.801 34.2881 117.037 34.1165C117.273 33.9448 117.455 33.709 117.561 33.437C117.668 33.165 117.694 32.8682 117.637 32.5818L115.598 22.323L123.278 15.2206C123.492 15.0224 123.645 14.767 123.718 14.4846C123.792 14.2023 123.783 13.9048 123.693 13.6273C123.602 13.3499 123.434 13.1041 123.209 12.9191C122.983 12.7341 122.709 12.6175 122.419 12.5833L112.032 11.3495L107.651 1.85261Z" fill="#69A297"></path><path fill-rule="evenodd" clip-rule="evenodd" d="M151.936 1.85261C151.814 1.58771 151.619 1.36338 151.373 1.20614C151.127 1.0489 150.841 0.965332 150.55 0.965332C150.258 0.965332 149.972 1.0489 149.727 1.20614C149.481 1.36338 149.285 1.58771 149.163 1.85261L144.78 11.351L134.395 12.5833C134.105 12.6175 133.831 12.7341 133.606 12.9191C133.38 13.1041 133.212 13.3499 133.122 13.6273C133.032 13.9048 133.023 14.2023 133.096 14.4846C133.17 14.767 133.323 15.0224 133.537 15.2206L141.218 22.3215L139.179 32.5834C139.123 32.8694 139.149 33.1657 139.255 33.4372C139.362 33.7087 139.544 33.9441 139.78 34.1154C140.016 34.2868 140.296 34.387 140.587 34.4043C140.878 34.4215 141.168 34.3551 141.422 34.2128L150.55 29.1032L159.677 34.2128C159.932 34.3557 160.222 34.4226 160.514 34.4055C160.805 34.3884 161.086 34.2881 161.322 34.1165C161.558 33.9448 161.74 33.709 161.847 33.437C161.953 33.165 161.979 32.8682 161.922 32.5818L159.883 22.323L167.563 15.2206C167.777 15.0224 167.93 14.767 168.003 14.4846C168.077 14.2023 168.068 13.9048 167.978 13.6273C167.887 13.3499 167.72 13.1041 167.494 12.9191C167.268 12.7341 166.994 12.6175 166.705 12.5833L156.318 11.3495L151.936 1.85261Z" fill="#69A297"></path><path fill-rule="evenodd" clip-rule="evenodd" d="M196.214 1.85261C196.091 1.58771 195.896 1.36338 195.65 1.20614C195.404 1.0489 195.119 0.965332 194.827 0.965332C194.535 0.965332 194.25 1.0489 194.004 1.20614C193.758 1.36338 193.563 1.58771 193.441 1.85261L189.058 11.351L178.672 12.5833C178.382 12.6175 178.109 12.7341 177.883 12.9191C177.657 13.1041 177.489 13.3499 177.399 13.6273C177.309 13.9048 177.3 14.2023 177.373 14.4846C177.447 14.767 177.6 15.0224 177.814 15.2206L185.495 22.3215L183.457 32.5834C183.4 32.8694 183.426 33.1657 183.533 33.4372C183.639 33.7087 183.821 33.9441 184.057 34.1154C184.293 34.2868 184.573 34.387 184.864 34.4043C185.155 34.4215 185.445 34.3551 185.7 34.2128L194.827 29.1032L203.954 34.2128C204.209 34.3557 204.499 34.4226 204.791 34.4055C205.082 34.3884 205.363 34.2881 205.599 34.1165C205.836 33.9448 206.018 33.709 206.124 33.437C206.23 33.165 206.256 32.8682 206.199 32.5818L204.161 22.323L211.84 15.2206C212.054 15.0224 212.207 14.767 212.281 14.4846C212.354 14.2023 212.345 13.9048 212.255 13.6273C212.165 13.3499 211.997 13.1041 211.771 12.9191C211.546 12.7341 211.272 12.6175 210.982 12.5833L200.595 11.3495L196.214 1.85261Z" fill="#69A297"></path><path fill-rule="evenodd" clip-rule="evenodd" d="M63.3621 1.85261C63.2399 1.58771 63.0444 1.36338 62.7986 1.20614C62.5529 1.0489 62.2673 0.965332 61.9755 0.965332C61.6838 0.965332 61.3982 1.0489 61.1525 1.20614C60.9067 1.36338 60.7112 1.58771 60.589 1.85261L56.2063 11.351L45.8207 12.5833C45.5309 12.6175 45.257 12.7341 45.0314 12.9191C44.8058 13.1041 44.6379 13.3499 44.5476 13.6273C44.4573 13.9048 44.4484 14.2023 44.5219 14.4846C44.5954 14.767 44.7483 15.0224 44.9625 15.2206L52.6436 22.3215L50.605 32.5834C50.5484 32.8694 50.5748 33.1657 50.6812 33.4372C50.7877 33.7087 50.9696 33.9441 51.2056 34.1154C51.4415 34.2868 51.7216 34.387 52.0127 34.4043C52.3038 34.4215 52.5937 34.3551 52.8482 34.2128L61.9755 29.1032L71.1028 34.2128C71.3575 34.3557 71.6478 34.4226 71.9394 34.4055C72.2309 34.3884 72.5115 34.2881 72.7477 34.1165C72.984 33.9448 73.1661 33.709 73.2724 33.437C73.3788 33.165 73.4049 32.8682 73.3476 32.5818L71.309 22.323L78.9886 15.2206C79.2028 15.0224 79.3556 14.767 79.4292 14.4846C79.5027 14.2023 79.4938 13.9048 79.4035 13.6273C79.3132 13.3499 79.1453 13.1041 78.9197 12.9191C78.6941 12.7341 78.4202 12.6175 78.1304 12.5833L67.7433 11.3495L63.3621 1.85261Z" fill="#69A297"></path><path fill-rule="evenodd" clip-rule="evenodd" d="M19.077 1.85261C18.9547 1.58771 18.7592 1.36338 18.5135 1.20614C18.2677 1.0489 17.9821 0.965332 17.6904 0.965332C17.3987 0.965332 17.113 1.0489 16.8673 1.20614C16.6216 1.36338 16.426 1.58771 16.3038 1.85261L11.9211 11.351L1.53551 12.5833C1.24575 12.6175 0.971852 12.7341 0.74624 12.9191C0.520628 13.1041 0.352742 13.3499 0.262454 13.6273C0.172165 13.9048 0.163253 14.2023 0.236771 14.4846C0.31029 14.767 0.463162 15.0224 0.677294 15.2206L8.35846 22.3215L6.31982 32.5834C6.2632 32.8694 6.28966 33.1657 6.39609 33.4372C6.50252 33.7087 6.68446 33.9441 6.92039 34.1154C7.15633 34.2868 7.43641 34.387 7.72751 34.4043C8.01861 34.4215 8.30856 34.3551 8.56308 34.2128L17.6904 29.1032L26.8177 34.2128C27.0724 34.3557 27.3627 34.4226 27.6542 34.4055C27.9458 34.3884 28.2263 34.2881 28.4626 34.1165C28.6989 33.9448 28.8809 33.709 28.9873 33.437C29.0936 33.165 29.1197 32.8682 29.0625 32.5818L27.0238 22.323L34.7035 15.2206C34.9176 15.0224 35.0705 14.767 35.144 14.4846C35.2175 14.2023 35.2086 13.9048 35.1183 13.6273C35.028 13.3499 34.8601 13.1041 34.6345 12.9191C34.4089 12.7341 34.135 12.6175 33.8453 12.5833L23.4581 11.3495L19.077 1.85261Z" fill="#69A297"></path></svg> 