<?xml version="1.0" encoding="UTF-8"?> <svg xmlns="http://www.w3.org/2000/svg" width="67" height="65" viewBox="0 0 67 65" fill="none"><path d="M34.8918 16.834V31.2757L46.8556 38.4749C47.4582 38.838 47.8924 39.4262 48.0626 40.1103C48.2328 40.7944 48.125 41.5183 47.7631 42.1227C47.4012 42.7272 46.8147 43.1627 46.1327 43.3334C45.4506 43.5041 44.7289 43.3961 44.1263 43.033L30.8774 35.0597C30.4852 34.8234 30.1608 34.4893 29.9356 34.0899C29.7104 33.6906 29.5921 33.2395 29.5922 32.7807V16.834C29.5922 16.1291 29.8714 15.4531 30.3683 14.9547C30.8653 14.4562 31.5392 14.1762 32.242 14.1762C32.9448 14.1762 33.6188 14.4562 34.1157 14.9547C34.6126 15.4531 34.8918 16.1291 34.8918 16.834ZM65.053 9.06333C64.5688 8.86187 64.036 8.80895 63.5219 8.91126C63.0078 9.01356 62.5355 9.2665 62.1647 9.63807L58.0774 13.7477C57.0076 12.5816 55.9046 11.4221 54.7321 10.2294C50.3131 5.79661 44.6897 2.76825 38.5645 1.52273C32.4393 0.277221 26.0841 0.869793 20.2928 3.22641C14.5014 5.58302 9.53094 9.59917 6.00229 14.773C2.47364 19.9469 0.543337 26.049 0.452573 32.317C0.361809 38.5849 2.11461 44.7407 5.49196 50.0152C8.86931 55.2897 13.7214 59.4489 19.4421 61.9733C25.1627 64.4976 31.4981 65.275 37.6568 64.2085C43.8154 63.1419 49.5241 60.2786 54.0696 55.9764C54.3228 55.7365 54.5263 55.4488 54.6686 55.13C54.811 54.8111 54.8893 54.4673 54.8991 54.118C54.909 53.7688 54.8502 53.4211 54.726 53.0947C54.6019 52.7683 54.4148 52.4696 54.1756 52.2157C53.9364 51.9617 53.6496 51.7576 53.3317 51.6148C53.0138 51.4721 52.671 51.3935 52.3228 51.3836C51.9747 51.3737 51.628 51.4328 51.3025 51.5573C50.9771 51.6818 50.6793 51.8694 50.4262 52.1093C46.6386 55.694 41.8819 58.0798 36.7503 58.9687C31.6187 59.8576 26.3398 59.2101 21.5729 57.1073C16.8061 55.0044 12.7627 51.5393 9.94778 47.1449C7.1329 42.7505 5.67137 37.6216 5.74577 32.3989C5.82017 27.1762 7.4272 22.0912 10.3661 17.7793C13.305 13.4674 17.4455 10.1196 22.2703 8.15416C27.0951 6.18875 32.3903 5.69287 37.4945 6.72844C42.5987 7.76402 47.2854 10.2852 50.9694 13.9769C52.1419 15.1662 53.2449 16.3357 54.318 17.5084L48.9158 22.927C48.5448 23.2987 48.2921 23.7724 48.1897 24.2882C48.0872 24.8041 48.1397 25.3388 48.3405 25.8247C48.5412 26.3106 48.8811 26.7258 49.3173 27.0179C49.7534 27.3099 50.2661 27.4655 50.7905 27.4651H64.0394C64.7422 27.4651 65.4162 27.1851 65.9131 26.6867C66.41 26.1882 66.6892 25.5122 66.6892 24.8073V11.5185C66.6891 10.9928 66.5336 10.479 66.2424 10.042C65.9511 9.60496 65.5372 9.26439 65.053 9.06333Z" fill="#69A297"></path></svg> 