<?xml version="1.0" encoding="UTF-8"?> <svg xmlns="http://www.w3.org/2000/svg" width="48" height="62" viewBox="0 0 48 62" fill="none"><path d="M24.1973 0.246216C18.0181 0.253463 12.0941 2.79441 7.72473 7.31162C3.3554 11.8288 0.897635 17.9534 0.890625 24.3417C0.890625 44.9598 22.0785 60.5315 22.9816 61.1831C23.3379 61.4411 23.7623 61.5795 24.1973 61.5795C24.6323 61.5795 25.0567 61.4411 25.4129 61.1831C26.3161 60.5315 47.504 44.9598 47.504 24.3417C47.497 17.9534 45.0392 11.8288 40.6699 7.31162C36.3005 2.79441 30.3765 0.253463 24.1973 0.246216ZM24.1973 15.5797C25.8735 15.5797 27.5121 16.0936 28.9058 17.0564C30.2996 18.0191 31.3858 19.3876 32.0273 20.9886C32.6688 22.5897 32.8366 24.3514 32.5096 26.0511C32.1826 27.7507 31.3754 29.312 30.1901 30.5374C29.0049 31.7627 27.4947 32.5972 25.8507 32.9353C24.2067 33.2734 22.5026 33.0999 20.954 32.4367C19.4054 31.7735 18.0817 30.6505 17.1505 29.2096C16.2192 27.7687 15.7221 26.0747 15.7221 24.3417C15.7221 22.0179 16.6151 19.7892 18.2045 18.146C19.7939 16.5028 21.9495 15.5797 24.1973 15.5797Z" fill="#69A297"></path></svg> 